<svg width="30" height="32" viewBox="0 0 30 32" fill="none" xmlns="http://www.w3.org/2000/svg">
<path d="M15 0C15.4304 0 15.8126 0.275493 15.9487 0.68383L20.7207 14.9998H29C29.5523 14.9998 30 15.4475 30 15.9998C30 16.5521 29.5523 16.9998 29 16.9998H21.3875L25.9487 30.6835C26.123 31.2065 25.8411 31.772 25.3186 31.9476C24.7961 32.1233 24.23 31.8428 24.053 31.3207C23.2281 28.8873 21.2925 26.3191 18.6228 24.0183C16.2081 21.9372 13.2456 20.1215 10.1011 18.8579L5.94875 31.3158C5.77411 31.8397 5.20778 32.123 4.68385 31.9484C4.15994 31.7737 3.87669 31.2074 4.05129 30.6835L8.22047 18.1763C6.04645 17.4741 3.83654 17.0574 1.70314 17.0042L1.46755 16.9998H1.00002C0.450206 16.9998 0.00350848 16.556 1.99354e-05 16.0062C-0.00341615 15.4563 0.437766 15.0067 0.987568 14.9998C1.15557 14.9977 1.32395 14.9977 1.49245 14.9998H9.27931L14.0513 0.68383C14.1874 0.275493 14.5696 0 15 0ZM10.8408 16.9998C14.1928 18.346 17.3464 20.2781 19.9285 22.5034C20.5338 23.0251 21.1104 23.5656 21.6528 24.1211L19.2793 16.9998H10.8408ZM11.3875 14.9998H18.6126L15 4.16231L11.3875 14.9998Z" fill="#2A2E37"/>
</svg>
