<svg width="260" height="264" viewBox="0 0 260 264" fill="none" xmlns="http://www.w3.org/2000/svg">
<path d="M2 150.12L66 113L130 150.12M2 150.12L66 187.24M2 150.12V224.36L66 261.48M66 187.24L130 150.12M66 187.24V261.48M130 150.12V224.36L66 261.48" stroke="#2A2E37" stroke-width="4" stroke-miterlimit="16" stroke-linejoin="round"/>
<path d="M77 216.869L87.4504 222.812L77 241.189M97.9008 228.755L118.802 216.32" stroke="#2A2E37" stroke-width="4" stroke-linecap="round" stroke-linejoin="round"/>
<path d="M130 150.12L194 113L258 150.12M130 150.12L194 187.24M130 150.12V224.36L194 261.48M194 187.24L258 150.12M194 187.24V261.48M258 150.12V224.36L194 261.48" stroke="#2A2E37" stroke-width="4" stroke-miterlimit="16" stroke-linejoin="round"/>
<path d="M205 216.869L215.45 222.812L205 241.189M225.901 228.755L246.802 216.32" stroke="#2A2E37" stroke-width="4" stroke-linecap="round" stroke-linejoin="round"/>
<path d="M66 39.12L130 2L194 39.12M66 39.12L130 76.2399M66 39.12V113.36L130 150.48M130 76.2399L194 39.12M130 76.2399V150.48M194 39.12V113.36L130 150.48" stroke="#2A2E37" stroke-width="4" stroke-miterlimit="16" stroke-linejoin="round"/>
<path d="M141 105.869L151.45 111.812L141 130.189M161.901 117.755L182.802 105.32" stroke="#2A2E37" stroke-width="4" stroke-linecap="round" stroke-linejoin="round"/>
</svg>
